<?xml version="1.0" encoding="utf-8"?>
<!-- Generator: Adobe Illustrator 13.0.0, SVG Export Plug-In . SVG Version: 6.00 Build 14948)  -->
<!DOCTYPE svg PUBLIC "-//W3C//DTD SVG 1.1//EN" "http://www.w3.org/Graphics/SVG/1.1/DTD/svg11.dtd">
<svg version="1.1" id="Layer_1" xmlns="http://www.w3.org/2000/svg" xmlns:xlink="http://www.w3.org/1999/xlink" x="0px" y="0px"
	 width="160px" height="42px" viewBox="0 0 160 42" enable-background="new 0 0 160 42" xml:space="preserve">
<g>
	<g>
		<polygon fill="#26D381" points="8.528,0.235 12.484,7.851 22.838,7.851 		"/>
		<g>
			<polygon fill="#FF3822" points="19.404,23.312 19.404,29.485 23.444,29.485 26.36,23.312 			"/>
			<polygon fill="#FF3822" points="7.084,10.952 0.138,10.952 16.123,41.863 23.07,41.863 			"/>
			<polygon fill="#FF3822" points="7.084,10.952 10.28,17.125 36.511,17.125 39.702,10.952 			"/>
			<polygon fill="#FF3822" points="19.92,35.771 23.07,41.863 23.719,41.863 33.313,23.312 26.36,23.312 			"/>
			<g>
				<polygon fill="#FF3822" points="36.511,17.125 29.557,17.125 27.973,20.2 34.921,20.2 				"/>
			</g>
			<polygon opacity="0.5" fill="#212A34" points="7.13,10.952 10.323,17.125 17.269,17.125 			"/>
			<polygon opacity="0.5" fill="#212A34" points="19.92,35.768 23.075,41.863 23.719,41.863 25.206,38.985 19.92,35.768 			"/>
			<polygon opacity="0.5" fill="#212A34" points="31.456,20.2 36.511,17.125 29.557,17.125 27.973,20.2 			"/>
			<polygon opacity="0.5" fill="#212A34" points="19.404,27.551 19.404,29.485 23.157,29.485 26.36,23.313 			"/>
		</g>
		<polygon fill="#26D381" points="21.841,5.436 26.378,7.851 27.35,7.851 31.341,0.15 		"/>
	</g>
	<g>
		<g>
			<g>
				<g>
					<path fill="#999999" d="M57.097,33.906c-0.259,0-0.501-0.031-0.714-0.091c-0.213-0.062-0.399-0.147-0.549-0.262
						c-0.156-0.116-0.277-0.259-0.359-0.421c-0.084-0.163-0.129-0.351-0.129-0.558v-0.102h0.101h0.749h0.101v0.102
						c0,0.245,0.083,0.569,0.792,0.569c0.148,0,0.288-0.019,0.415-0.056c0.112-0.034,0.209-0.095,0.287-0.182
						c0.081-0.091,0.145-0.218,0.189-0.378c0.042-0.156,0.065-0.361,0.069-0.601c-0.307,0.283-0.663,0.43-1.063,0.43
						c-0.281,0-0.534-0.056-0.754-0.159c-0.219-0.107-0.41-0.262-0.562-0.456c-0.147-0.194-0.261-0.428-0.34-0.695
						c-0.076-0.267-0.116-0.564-0.116-0.888c0-0.338,0.046-0.651,0.136-0.928c0.089-0.274,0.216-0.514,0.376-0.708
						c0.161-0.198,0.355-0.353,0.58-0.461c0.224-0.106,0.469-0.162,0.729-0.162c0.386,0,0.726,0.102,1.014,0.298v-0.107V27.99h0.102
						h0.716h0.102v0.102v3.752C58.967,33.211,58.337,33.906,57.097,33.906L57.097,33.906z M57.078,28.664
						c-0.279,0-0.497,0.117-0.661,0.357c-0.174,0.249-0.26,0.632-0.26,1.139c0,0.478,0.083,0.841,0.245,1.082
						c0.159,0.232,0.371,0.345,0.647,0.345c0.362,0,0.697-0.214,1.018-0.657l-0.019-1.871C57.78,28.816,57.452,28.664,57.078,28.664
						L57.078,28.664z"/>
				</g>
			</g>
			<g>
				<path fill="#999999" d="M61.27,32.261h-0.101h-0.727H60.34v-0.103V28.09v-0.101h0.102h0.727h0.101v0.101v0.277
					c0.277-0.309,0.595-0.465,0.955-0.465c0.107,0,0.222,0.01,0.346,0.031l0.084,0.016v0.084v0.721v0.139l-0.133-0.044
					c-0.061-0.019-0.182-0.042-0.41-0.042c-0.33,0-0.613,0.175-0.862,0.534l0.02,2.817V32.261L61.27,32.261z"/>
			</g>
			<g>
				<g>
					<path fill="#999999" d="M64.907,32.359c-0.209,0-0.401-0.031-0.587-0.094c-0.182-0.059-0.34-0.147-0.473-0.26
						c-0.136-0.113-0.237-0.244-0.313-0.403c-0.076-0.156-0.114-0.329-0.114-0.52c0-1.012,0.863-1.526,2.559-1.526h0.251
						c-0.002-0.106-0.002-0.197-0.006-0.273c-0.007-0.104-0.018-0.179-0.035-0.236c-0.015-0.062-0.038-0.107-0.069-0.145
						c-0.034-0.04-0.08-0.079-0.147-0.121c-0.125-0.079-0.334-0.117-0.619-0.117c-0.866,0-0.885,0.448-0.89,0.597l-0.004,0.097
						h-0.097H63.64h-0.108l0.007-0.107c0.057-0.895,0.68-1.349,1.854-1.349c0.539,0,0.967,0.11,1.275,0.327
						c0.319,0.225,0.482,0.661,0.482,1.302v2.628v0.102h-0.102h-0.718H66.23v-0.102v-0.205
						C65.868,32.222,65.423,32.359,64.907,32.359L64.907,32.359z M65.835,30.291c-1.471,0-1.471,0.566-1.471,0.752
						c0,0.174,0.062,0.305,0.187,0.397c0.135,0.098,0.325,0.146,0.564,0.146c0.105,0,0.215-0.013,0.327-0.038
						c0.108-0.024,0.213-0.063,0.314-0.114c0.108-0.052,0.199-0.11,0.277-0.177c0.083-0.063,0.154-0.142,0.215-0.229l-0.017-0.736
						H65.835L65.835,30.291z"/>
				</g>
			</g>
			<g>
				<g>
					<path fill="#999999" d="M69.326,33.823h-0.101h-0.727h-0.101v-0.102V28.09v-0.101h0.101h0.727h0.101v0.101v0.235
						c0.302-0.279,0.657-0.423,1.059-0.423c0.277,0,0.529,0.054,0.75,0.156c0.222,0.105,0.409,0.258,0.56,0.45
						c0.152,0.192,0.269,0.427,0.344,0.695c0.079,0.264,0.119,0.564,0.119,0.892c0,0.338-0.046,0.651-0.138,0.928
						c-0.09,0.278-0.217,0.52-0.379,0.712c-0.162,0.198-0.355,0.353-0.578,0.461c-0.222,0.107-0.467,0.162-0.727,0.162
						c-0.382,0-0.72-0.104-1.01-0.306v1.669V33.823L69.326,33.823z M70.321,28.665c-0.363,0-0.704,0.22-1.014,0.655l0.019,1.869
						c0.262,0.243,0.587,0.396,0.966,0.396c0.281,0,0.496-0.114,0.662-0.353c0.168-0.247,0.253-0.63,0.253-1.137
						c0-0.479-0.081-0.847-0.241-1.091C70.813,28.777,70.602,28.665,70.321,28.665L70.321,28.665z"/>
				</g>
			</g>
			<g>
				<path fill="#999999" d="M76.818,32.261h-0.103h-0.72h-0.102v-0.103v-2.627c0-0.307-0.053-0.526-0.156-0.655
					c-0.1-0.117-0.271-0.178-0.509-0.178c-0.335,0-0.679,0.206-1.024,0.613l0.025,2.847v0.103h-0.103h-0.726H73.3v-0.103v-5.614
					v-0.102h0.103h0.726h0.103v0.102v1.821c0.332-0.307,0.705-0.463,1.111-0.463c0.979,0,1.477,0.539,1.477,1.599v2.657V32.261
					L76.818,32.261z"/>
			</g>
			<g>
				<g>
					<path fill="#999999" d="M79.133,32.261h-0.101h-0.729h-0.101v-0.103V28.09v-0.101h0.101h0.729h0.101v0.101v4.068V32.261
						L79.133,32.261z M79.133,27.427h-0.101h-0.729h-0.101v-0.101v-0.782v-0.102h0.101h0.729h0.101v0.102v0.782V27.427
						L79.133,27.427z"/>
				</g>
			</g>
			<g>
				<path fill="#999999" d="M82.314,32.359c-0.299,0-0.574-0.052-0.822-0.152c-0.244-0.1-0.457-0.245-0.636-0.438
					c-0.178-0.186-0.31-0.416-0.407-0.701c-0.094-0.271-0.142-0.587-0.142-0.938s0.046-0.659,0.144-0.94
					c0.098-0.274,0.234-0.512,0.409-0.703c0.179-0.19,0.392-0.338,0.639-0.438c0.247-0.097,0.521-0.148,0.815-0.148
					c0.232,0,0.45,0.032,0.644,0.094c0.204,0.059,0.384,0.149,0.53,0.263c0.154,0.121,0.281,0.27,0.379,0.442
					c0.098,0.175,0.163,0.376,0.188,0.596l0.016,0.114h-0.115h-0.748h-0.095l-0.006-0.095c-0.004-0.106-0.027-0.199-0.069-0.281
					c-0.043-0.08-0.098-0.146-0.168-0.199c-0.069-0.054-0.148-0.097-0.249-0.129c-0.099-0.027-0.2-0.042-0.306-0.042
					c-0.154,0-0.301,0.029-0.428,0.086c-0.128,0.063-0.236,0.148-0.33,0.267c-0.096,0.119-0.17,0.271-0.223,0.453
					c-0.055,0.189-0.082,0.411-0.082,0.661c0,0.248,0.025,0.46,0.08,0.646c0.051,0.179,0.123,0.331,0.219,0.456
					c0.094,0.118,0.202,0.205,0.332,0.264c0.125,0.06,0.271,0.089,0.432,0.089c0.104,0,0.207-0.013,0.311-0.042
					c0.096-0.028,0.175-0.068,0.242-0.123c0.072-0.055,0.127-0.12,0.17-0.2c0.04-0.081,0.065-0.173,0.069-0.281l0.006-0.096h0.095
					h0.748h0.115l-0.016,0.114c-0.024,0.228-0.088,0.424-0.189,0.601c-0.098,0.173-0.225,0.321-0.377,0.439
					c-0.148,0.118-0.326,0.209-0.53,0.271C82.758,32.328,82.541,32.359,82.314,32.359L82.314,32.359z"/>
			</g>
			<g>
				<path fill="#999999" d="M89.266,32.261h-0.102h-0.727h-0.102v-0.103V28.09v-0.101h0.102h0.727h0.102v0.101v0.277
					c0.277-0.309,0.596-0.465,0.955-0.465c0.107,0,0.222,0.01,0.347,0.031l0.085,0.016v0.084v0.721v0.137l-0.133-0.042
					c-0.063-0.019-0.186-0.042-0.413-0.042c-0.325,0-0.615,0.18-0.859,0.534l0.019,2.817V32.261L89.266,32.261z"/>
			</g>
			<g>
				<g>
					<path fill="#999999" d="M93.402,32.359c-0.309,0-0.596-0.054-0.849-0.154c-0.255-0.102-0.478-0.25-0.661-0.439
						c-0.186-0.196-0.327-0.434-0.428-0.705c-0.096-0.279-0.146-0.592-0.146-0.93c0-0.345,0.048-0.657,0.145-0.933
						c0.098-0.271,0.235-0.509,0.413-0.701c0.177-0.193,0.394-0.342,0.638-0.441c0.244-0.101,0.518-0.154,0.812-0.154
						c0.306,0,0.575,0.05,0.821,0.15c0.246,0.1,0.461,0.247,0.639,0.441c0.175,0.19,0.313,0.427,0.407,0.703
						c0.093,0.273,0.139,0.588,0.139,0.935v0.171v0.102H95.23h-2.949c0.02,0.18,0.055,0.34,0.109,0.481
						c0.066,0.161,0.148,0.293,0.248,0.396c0.099,0.103,0.215,0.178,0.342,0.229c0.129,0.051,0.27,0.076,0.422,0.076
						c0.114,0,0.229-0.015,0.34-0.044c0.103-0.03,0.199-0.074,0.288-0.131c0.081-0.054,0.146-0.121,0.198-0.203
						c0.049-0.078,0.076-0.167,0.081-0.269l0.006-0.096h0.095h0.748h0.116l-0.017,0.117c-0.031,0.217-0.102,0.421-0.207,0.598
						c-0.107,0.176-0.247,0.325-0.414,0.441c-0.16,0.118-0.351,0.207-0.563,0.269C93.863,32.328,93.638,32.359,93.402,32.359
						L93.402,32.359z M92.307,29.63h2.043c-0.062-0.311-0.178-0.545-0.343-0.705c-0.184-0.175-0.411-0.261-0.682-0.261
						c-0.134,0-0.256,0.021-0.366,0.063c-0.113,0.045-0.218,0.11-0.304,0.195c-0.091,0.09-0.169,0.202-0.23,0.336
						C92.374,29.367,92.334,29.49,92.307,29.63L92.307,29.63z"/>
				</g>
			</g>
			<g>
				<path fill="#999999" d="M98.074,32.359c-1.17,0-1.791-0.474-1.846-1.407l-0.004-0.108h0.104h0.728h0.102v0.103
					c0,0.274,0.093,0.64,0.905,0.64c0.28,0,0.486-0.053,0.626-0.165c0.133-0.105,0.196-0.231,0.196-0.386
					c0-0.077-0.011-0.136-0.034-0.18c-0.021-0.041-0.064-0.081-0.135-0.118c-0.078-0.042-0.188-0.085-0.34-0.129
					c-0.154-0.045-0.354-0.096-0.597-0.154c-0.49-0.127-0.853-0.267-1.077-0.417c-0.249-0.171-0.376-0.46-0.376-0.866
					c0-0.184,0.04-0.356,0.118-0.513c0.08-0.156,0.192-0.292,0.336-0.404c0.14-0.106,0.311-0.194,0.512-0.257
					c0.193-0.063,0.412-0.096,0.648-0.096c1.121,0,1.705,0.417,1.732,1.232l0.002,0.104h-0.104H98.85h-0.095l-0.007-0.095
					c-0.006-0.118-0.031-0.479-0.758-0.479c-0.112,0-0.212,0.011-0.309,0.032c-0.089,0.019-0.17,0.05-0.237,0.089
					c-0.063,0.035-0.108,0.08-0.147,0.138c-0.034,0.055-0.051,0.113-0.051,0.182c0,0.126,0.042,0.208,0.136,0.259
					c0.069,0.039,0.276,0.123,0.893,0.271c0.252,0.059,0.472,0.127,0.657,0.198c0.182,0.07,0.34,0.148,0.47,0.233
					c0.137,0.086,0.241,0.209,0.308,0.363c0.064,0.149,0.098,0.329,0.098,0.536c0,0.2-0.045,0.387-0.127,0.559
					c-0.082,0.171-0.203,0.32-0.357,0.442c-0.149,0.123-0.326,0.219-0.545,0.288C98.568,32.324,98.332,32.359,98.074,32.359
					L98.074,32.359z"/>
			</g>
			<g>
				<g>
					<path fill="#999999" d="M102.734,32.359c-0.297,0-0.574-0.052-0.818-0.152c-0.248-0.1-0.461-0.247-0.639-0.438
						c-0.176-0.188-0.313-0.424-0.407-0.701c-0.093-0.276-0.142-0.594-0.142-0.938c0-0.351,0.047-0.659,0.144-0.94
						c0.098-0.274,0.235-0.512,0.409-0.703c0.179-0.19,0.392-0.338,0.639-0.438c0.247-0.097,0.52-0.148,0.814-0.148
						c0.307,0,0.575,0.05,0.822,0.15c0.245,0.1,0.461,0.247,0.639,0.441c0.176,0.19,0.313,0.427,0.407,0.703
						c0.093,0.277,0.142,0.592,0.142,0.935c0,0.338-0.049,0.65-0.142,0.928c-0.095,0.273-0.229,0.511-0.407,0.705
						c-0.178,0.191-0.392,0.34-0.639,0.441C103.312,32.306,103.035,32.359,102.734,32.359L102.734,32.359z M102.734,28.664
						c-0.154,0-0.299,0.029-0.426,0.086c-0.129,0.063-0.236,0.148-0.332,0.267c-0.094,0.119-0.169,0.271-0.221,0.453
						c-0.056,0.189-0.083,0.411-0.083,0.661c0,0.238,0.025,0.456,0.081,0.646c0.05,0.179,0.123,0.333,0.219,0.454
						c0.092,0.116,0.2,0.204,0.332,0.266c0.125,0.06,0.27,0.089,0.43,0.089c0.162,0,0.301-0.027,0.426-0.089
						c0.133-0.059,0.241-0.146,0.335-0.266c0.094-0.119,0.167-0.269,0.22-0.454c0.054-0.185,0.079-0.402,0.079-0.646
						c0-0.257-0.027-0.478-0.083-0.659c-0.053-0.184-0.126-0.336-0.22-0.457c-0.095-0.116-0.202-0.202-0.334-0.265
						C103.035,28.693,102.895,28.664,102.734,28.664L102.734,28.664z"/>
				</g>
			</g>
			<g>
				<path fill="#999999" d="M107.224,32.359c-0.965,0-1.477-0.556-1.477-1.605v-2.662V27.99h0.102h0.727h0.102v0.102v2.633
					c0,0.307,0.051,0.525,0.15,0.654c0.097,0.118,0.267,0.178,0.505,0.178c0.369,0,0.716-0.205,1.028-0.613l-0.021-2.852V27.99
					h0.102h0.718h0.101v0.102v4.066v0.102h-0.101h-0.718h-0.102v-0.102v-0.268C108.002,32.201,107.627,32.359,107.224,32.359
					L107.224,32.359z"/>
			</g>
			<g>
				<path fill="#999999" d="M111.311,32.261h-0.102h-0.727h-0.102v-0.103V28.09v-0.101h0.102h0.727h0.102v0.101v0.277
					c0.277-0.309,0.597-0.465,0.955-0.465c0.108,0,0.223,0.01,0.347,0.031l0.085,0.016v0.084v0.721v0.137l-0.131-0.042
					c-0.064-0.019-0.187-0.042-0.414-0.042c-0.326,0-0.615,0.18-0.86,0.534l0.019,2.817V32.261L111.311,32.261z"/>
			</g>
			<g>
				<path fill="#999999" d="M115.256,32.359c-0.299,0-0.575-0.052-0.822-0.152c-0.247-0.1-0.461-0.247-0.639-0.438
					c-0.176-0.189-0.313-0.426-0.404-0.701c-0.094-0.271-0.143-0.587-0.143-0.938c0-0.359,0.049-0.666,0.145-0.942
					c0.092-0.269,0.232-0.505,0.41-0.701c0.174-0.19,0.391-0.336,0.635-0.438c0.248-0.097,0.521-0.148,0.818-0.148
					c0.232,0,0.449,0.032,0.645,0.094c0.202,0.059,0.376,0.146,0.53,0.263c0.149,0.117,0.276,0.265,0.375,0.44
					c0.097,0.177,0.163,0.378,0.19,0.598l0.015,0.114h-0.114h-0.747h-0.095l-0.006-0.095c-0.006-0.106-0.028-0.199-0.07-0.281
					c-0.047-0.082-0.1-0.148-0.167-0.199c-0.069-0.054-0.152-0.097-0.249-0.129c-0.098-0.027-0.201-0.042-0.307-0.042
					c-0.156,0-0.301,0.029-0.427,0.086c-0.131,0.064-0.241,0.152-0.332,0.265c-0.096,0.121-0.169,0.273-0.222,0.455
					c-0.055,0.184-0.082,0.404-0.082,0.661c0,0.244,0.024,0.462,0.078,0.646c0.053,0.186,0.126,0.335,0.22,0.454
					c0.095,0.12,0.202,0.207,0.334,0.266c0.124,0.06,0.271,0.089,0.431,0.089c0.104,0,0.207-0.013,0.309-0.042
					c0.095-0.028,0.176-0.068,0.245-0.123c0.069-0.052,0.122-0.118,0.169-0.202c0.039-0.079,0.064-0.171,0.07-0.279l0.006-0.096
					h0.095h0.747h0.114l-0.015,0.114c-0.029,0.228-0.09,0.424-0.188,0.599c-0.104,0.18-0.23,0.327-0.378,0.441
					c-0.156,0.12-0.331,0.209-0.53,0.271C115.699,32.328,115.481,32.359,115.256,32.359L115.256,32.359z"/>
			</g>
			<g>
				<g>
					<path fill="#999999" d="M119.801,32.359c-0.309,0-0.594-0.054-0.852-0.154c-0.254-0.1-0.476-0.247-0.659-0.439
						c-0.187-0.194-0.325-0.425-0.427-0.705c-0.1-0.275-0.15-0.588-0.15-0.93c0-0.347,0.051-0.659,0.148-0.933
						c0.099-0.28,0.234-0.511,0.411-0.701c0.178-0.193,0.394-0.342,0.637-0.441c0.245-0.101,0.52-0.154,0.813-0.154
						c0.302,0,0.578,0.052,0.821,0.15c0.245,0.1,0.459,0.249,0.636,0.441c0.176,0.19,0.313,0.427,0.408,0.703
						c0.093,0.277,0.141,0.592,0.141,0.935v0.171v0.102h-0.102h-2.951c0.021,0.184,0.06,0.344,0.112,0.479
						c0.062,0.158,0.144,0.291,0.248,0.398c0.097,0.103,0.213,0.178,0.34,0.229c0.132,0.051,0.271,0.076,0.425,0.076
						c0.113,0,0.224-0.015,0.338-0.044c0.103-0.03,0.2-0.074,0.287-0.131c0.08-0.054,0.146-0.121,0.199-0.203
						c0.05-0.08,0.077-0.169,0.082-0.269l0.006-0.096h0.096h0.745h0.116l-0.017,0.117c-0.032,0.217-0.102,0.421-0.208,0.598
						c-0.107,0.176-0.244,0.323-0.409,0.441c-0.167,0.118-0.356,0.209-0.565,0.269C120.261,32.328,120.035,32.359,119.801,32.359
						L119.801,32.359z M118.701,29.63h2.045c-0.061-0.309-0.177-0.543-0.344-0.705c-0.186-0.177-0.408-0.261-0.68-0.261
						c-0.132,0-0.256,0.021-0.369,0.063c-0.113,0.043-0.211,0.107-0.301,0.195c-0.096,0.09-0.169,0.2-0.232,0.336
						C118.77,29.367,118.729,29.49,118.701,29.63L118.701,29.63z"/>
				</g>
			</g>
		</g>
	</g>
	<g>
		<path fill="#F9F9F9" d="M60.375,23.131c-1.039,0-1.982-0.236-2.801-0.701c-0.817-0.463-1.461-1.122-1.912-1.957
			c-0.446-0.829-0.674-1.78-0.674-2.83c0-1.07,0.238-2.037,0.708-2.87c0.464-0.833,1.114-1.491,1.929-1.954
			c0.808-0.459,1.717-0.691,2.705-0.691c0.781,0,1.478,0.099,2.074,0.291c0.574,0.185,1.144,0.453,1.695,0.798
			c0.085,0.042,0.202,0.142,0.3,0.303c0.087,0.142,0.13,0.301,0.13,0.476c0,0.235-0.086,0.453-0.25,0.627
			c-0.17,0.175-0.397,0.267-0.659,0.267c-0.154,0-0.302-0.035-0.439-0.101c-0.444-0.265-0.876-0.461-1.316-0.595
			c-0.423-0.123-0.891-0.187-1.389-0.187c-0.684,0-1.303,0.144-1.842,0.429c-0.541,0.282-0.955,0.687-1.264,1.233
			c-0.306,0.551-0.46,1.215-0.46,1.975c0,0.7,0.146,1.33,0.438,1.88c0.284,0.539,0.702,0.972,1.244,1.284
			c0.544,0.314,1.205,0.472,1.956,0.472c0.779,0,1.51-0.163,2.178-0.489l0.056-0.027v-0.063v-1.973v-0.101H62.68h-1.987
			c-0.246,0-0.465-0.09-0.633-0.263c-0.172-0.169-0.262-0.39-0.262-0.633c0-0.238,0.09-0.457,0.258-0.631
			c0.18-0.175,0.395-0.266,0.637-0.266h2.853c0.27,0,0.512,0.102,0.702,0.289c0.195,0.199,0.295,0.438,0.295,0.708v3.289
			c0,0.255-0.068,0.493-0.2,0.706c-0.134,0.207-0.31,0.362-0.523,0.461C62.701,22.848,61.543,23.131,60.375,23.131L60.375,23.131z"
			/>
		<path fill="#F9F9F9" d="M74.383,23.131c-0.285,0-0.527-0.095-0.701-0.275c-0.174-0.176-0.266-0.409-0.266-0.682v-0.432
			c0-0.453-0.042-0.884-0.125-1.281c-0.074-0.35-0.251-0.66-0.539-0.947c-0.271-0.264-0.701-0.397-1.281-0.397h-2.596h-0.1v0.101
			v2.957c0,0.262-0.098,0.497-0.285,0.68c-0.192,0.183-0.421,0.277-0.682,0.277c-0.26,0-0.492-0.097-0.672-0.277
			c-0.187-0.185-0.281-0.413-0.281-0.68v-8.863c0-0.264,0.095-0.497,0.272-0.68c0.179-0.188,0.415-0.286,0.681-0.286h3.375
			c1.378,0,2.438,0.296,3.145,0.879c0.726,0.599,1.095,1.394,1.095,2.362c0,0.638-0.181,1.228-0.537,1.752
			c-0.207,0.305-0.471,0.566-0.782,0.774l-0.123,0.083l0.121,0.083c0.374,0.265,0.653,0.64,0.831,1.117
			c0.27,0.704,0.404,1.416,0.404,2.112v0.666c0,0.265-0.093,0.491-0.275,0.678C74.877,23.034,74.641,23.131,74.383,23.131
			L74.383,23.131z M68.774,14.194v0.101v2.87v0.101h0.1h2.219c0.767,0,1.378-0.147,1.811-0.438c0.407-0.275,0.598-0.639,0.598-1.139
			c0-0.488-0.162-0.836-0.509-1.094c-0.253-0.183-0.801-0.4-1.973-0.4h-2.146H68.774L68.774,14.194z"/>
		<path fill="#F9F9F9" d="M86.035,23.131c-0.192,0-0.372-0.053-0.532-0.158c-0.164-0.107-0.283-0.246-0.366-0.429l-0.842-2.018
			l-0.026-0.062h-0.066h-4.386H79.75l-0.025,0.062l-0.841,2.012c-0.085,0.185-0.206,0.325-0.364,0.433
			c-0.17,0.107-0.346,0.16-0.537,0.16c-0.27,0-0.51-0.097-0.688-0.279c-0.177-0.19-0.267-0.418-0.267-0.678
			c0-0.115,0.03-0.241,0.097-0.403l3.691-8.724c0.1-0.225,0.238-0.402,0.418-0.544c0.195-0.154,0.431-0.232,0.703-0.232h0.144
			c0.269,0,0.51,0.083,0.7,0.234c0.179,0.138,0.318,0.317,0.414,0.536l3.696,8.723c0.064,0.158,0.097,0.293,0.097,0.41
			c0,0.265-0.088,0.489-0.263,0.672C86.539,23.034,86.309,23.131,86.035,23.131L86.035,23.131z M82.008,15.041l-0.093,0.224
			l-1.351,3.254l-0.06,0.14h0.152h2.702h0.152l-0.061-0.14L82.1,15.265L82.008,15.041L82.008,15.041z"/>
		<path fill="#F9F9F9" d="M89.721,23.131c-0.26,0-0.49-0.097-0.672-0.277c-0.186-0.187-0.28-0.415-0.28-0.68v-8.863
			c0-0.262,0.095-0.494,0.272-0.68c0.178-0.188,0.414-0.286,0.68-0.286h3.304c0.964,0,1.767,0.168,2.388,0.496
			c0.631,0.34,1.092,0.782,1.368,1.317c0.273,0.528,0.411,1.103,0.411,1.702c0,0.603-0.138,1.177-0.411,1.703
			c-0.278,0.539-0.739,0.979-1.368,1.315c-0.619,0.33-1.42,0.498-2.388,0.498h-2.233h-0.1v0.101v2.696
			c0,0.262-0.101,0.497-0.287,0.68C90.212,23.036,89.981,23.131,89.721,23.131L89.721,23.131z M90.691,14.194v0.101v3.134v0.101h0.1
			h2.103c0.901,0,1.53-0.162,1.872-0.483c0.335-0.314,0.505-0.714,0.505-1.186c0-0.478-0.166-0.864-0.505-1.185
			c-0.342-0.319-0.973-0.481-1.872-0.481h-2.103H90.691L90.691,14.194z"/>
		<path fill="#F9F9F9" d="M106.659,23.131c-0.259,0-0.493-0.097-0.675-0.277c-0.186-0.187-0.28-0.415-0.28-0.68v-3.448v-0.101
			h-0.101h-4.682h-0.101v0.101v3.448c0,0.258-0.101,0.493-0.289,0.68c-0.19,0.183-0.423,0.277-0.683,0.277s-0.491-0.097-0.672-0.277
			c-0.186-0.187-0.28-0.415-0.28-0.68v-8.937c0-0.255,0.095-0.489,0.272-0.678c0.183-0.188,0.418-0.289,0.68-0.289
			s0.5,0.099,0.687,0.283c0.188,0.194,0.285,0.427,0.285,0.684v3.45v0.102h0.101h4.682h0.101v-0.102v-3.45
			c0-0.255,0.095-0.489,0.272-0.678c0.182-0.188,0.418-0.289,0.683-0.289c0.262,0,0.498,0.099,0.685,0.283
			c0.184,0.188,0.281,0.427,0.281,0.684v8.937c0,0.262-0.098,0.497-0.284,0.68C107.148,23.036,106.919,23.131,106.659,23.131
			L106.659,23.131z"/>
		<path fill="#F9F9F9" d="M114.271,23.131h-3.509c-0.26,0-0.495-0.097-0.676-0.279c-0.181-0.181-0.276-0.413-0.276-0.674v-8.795
			c0-0.26,0.094-0.493,0.272-0.678c0.178-0.188,0.413-0.287,0.68-0.287h3.42c1.101,0,1.972,0.261,2.591,0.776
			c0.633,0.531,0.953,1.255,0.953,2.147c0,0.619-0.15,1.147-0.449,1.574c-0.144,0.194-0.304,0.367-0.476,0.511l-0.115,0.095
			l0.129,0.07c0.318,0.175,0.601,0.396,0.843,0.658c0.422,0.461,0.635,1.047,0.635,1.739c0,0.98-0.338,1.759-1.008,2.318
			C116.63,22.861,115.642,23.131,114.271,23.131L114.271,23.131z M111.734,18.584v0.101v2.51v0.101h0.1h2.303
			c1.087,0,1.586-0.205,1.814-0.377c0.317-0.231,0.465-0.548,0.465-0.988c0-0.577-0.233-1.346-2.262-1.346h-2.32H111.734
			L111.734,18.584z M111.734,14.252v0.101v2.337v0.102h0.1h2.001c0.782,0,1.327-0.123,1.618-0.364
			c0.281-0.234,0.412-0.548,0.412-0.986c0-0.354-0.141-0.629-0.432-0.839c-0.318-0.232-0.773-0.35-1.352-0.35h-2.248H111.734
			L111.734,14.252z"/>
		<path fill="#F9F9F9" d="M127.081,23.131h-5.812c-0.259,0-0.494-0.097-0.676-0.279c-0.18-0.181-0.275-0.413-0.275-0.674v-8.795
			c0-0.26,0.094-0.493,0.271-0.678c0.18-0.188,0.414-0.287,0.68-0.287h5.812c0.253,0,0.476,0.093,0.649,0.265
			c0.179,0.176,0.273,0.403,0.273,0.66s-0.095,0.481-0.273,0.653c-0.18,0.17-0.396,0.256-0.649,0.256h-4.739h-0.1v0.101v2.396v0.1
			h0.1h4.217c0.252,0,0.478,0.093,0.652,0.267c0.182,0.185,0.273,0.407,0.273,0.658c0,0.254-0.094,0.479-0.273,0.653
			c-0.175,0.168-0.4,0.257-0.652,0.257h-4.217h-0.1v0.1v2.412v0.101h0.1h4.739c0.255,0,0.481,0.094,0.658,0.273
			c0.172,0.174,0.265,0.398,0.265,0.652s-0.095,0.479-0.273,0.651C127.557,23.041,127.332,23.131,127.081,23.131L127.081,23.131z"/>
		<path fill="#F9F9F9" d="M137.422,23.131c-0.284,0-0.525-0.095-0.699-0.275c-0.175-0.176-0.268-0.409-0.268-0.682v-0.432
			c0-0.453-0.041-0.884-0.124-1.281c-0.073-0.348-0.251-0.658-0.54-0.947c-0.27-0.264-0.7-0.397-1.279-0.397h-2.597h-0.101v0.101
			v2.957c0,0.269-0.096,0.495-0.285,0.68c-0.188,0.181-0.424,0.277-0.682,0.277c-0.26,0-0.492-0.097-0.672-0.277
			c-0.187-0.185-0.281-0.413-0.281-0.68v-8.863c0-0.264,0.095-0.497,0.272-0.68c0.179-0.188,0.415-0.286,0.681-0.286h3.375
			c1.381,0,2.44,0.296,3.145,0.879c0.728,0.596,1.097,1.392,1.097,2.362c0,0.638-0.181,1.228-0.539,1.752
			c-0.198,0.301-0.463,0.562-0.78,0.774l-0.123,0.083l0.121,0.083c0.372,0.265,0.651,0.642,0.829,1.117
			c0.269,0.704,0.403,1.416,0.403,2.112v0.666c0,0.265-0.092,0.491-0.273,0.678C137.916,23.034,137.681,23.131,137.422,23.131
			L137.422,23.131z M131.814,14.194v0.101v2.87v0.101h0.101h2.22c0.766,0,1.376-0.147,1.809-0.438
			c0.403-0.271,0.599-0.643,0.599-1.139c0-0.488-0.162-0.836-0.509-1.094c-0.248-0.183-0.793-0.4-1.969-0.4h-2.149H131.814
			L131.814,14.194z"/>
		<path fill="#F9F9F9" d="M148.289,23.131c-0.283,0-0.517-0.09-0.697-0.271c-0.176-0.178-0.27-0.415-0.27-0.686v-0.432
			c0-0.46-0.042-0.891-0.123-1.281c-0.074-0.35-0.251-0.66-0.543-0.947c-0.27-0.264-0.697-0.397-1.277-0.397h-2.594h-0.101v0.101
			v2.957c0,0.258-0.101,0.493-0.289,0.68c-0.188,0.181-0.427,0.277-0.682,0.277c-0.261,0-0.492-0.097-0.672-0.277
			c-0.187-0.187-0.281-0.415-0.281-0.68v-8.863c0-0.262,0.095-0.494,0.272-0.68c0.179-0.188,0.414-0.286,0.681-0.286h3.377
			c1.376,0,2.437,0.296,3.145,0.879c0.728,0.601,1.097,1.396,1.097,2.362c0,0.636-0.182,1.226-0.539,1.752
			c-0.205,0.305-0.469,0.566-0.785,0.774l-0.122,0.083l0.12,0.083c0.373,0.265,0.654,0.642,0.834,1.119
			c0.27,0.716,0.403,1.424,0.403,2.11v0.666c0,0.267-0.093,0.493-0.274,0.676C148.783,23.036,148.553,23.131,148.289,23.131
			L148.289,23.131z M142.685,14.194v0.101v2.87v0.101h0.101h2.217c0.767,0,1.375-0.147,1.808-0.438
			c0.403-0.271,0.599-0.643,0.599-1.139c0-0.488-0.162-0.836-0.509-1.094c-0.248-0.183-0.793-0.4-1.969-0.4h-2.146H142.685
			L142.685,14.194z"/>
		<path fill="#F9F9F9" d="M155.34,23.131c-0.257,0-0.492-0.095-0.678-0.273c-0.193-0.188-0.292-0.417-0.292-0.684V18.61
			l-3.405-4.805c-0.117-0.19-0.172-0.376-0.172-0.568c-0.016-0.251,0.075-0.489,0.256-0.678c0.184-0.188,0.42-0.289,0.682-0.289
			c0.35,0,0.629,0.157,0.834,0.47l2.693,3.915l0.082,0.121l0.081-0.121l2.695-3.919c0.2-0.307,0.485-0.466,0.83-0.466
			c0.263,0,0.497,0.101,0.68,0.287c0.185,0.192,0.272,0.435,0.257,0.698c0,0.178-0.057,0.359-0.158,0.532l-3.414,4.763l-0.018,3.623
			c0,0.267-0.093,0.493-0.275,0.676C155.834,23.034,155.598,23.131,155.34,23.131L155.34,23.131z"/>
	</g>
</g>
</svg>
